<?xml version="1.0" encoding="UTF-8"?>
<svg width="20px" height="20px" viewBox="0 0 20 20" version="1.1" xmlns="http://www.w3.org/2000/svg" xmlns:xlink="http://www.w3.org/1999/xlink">
    <!-- Generator: Sketch 50.2 (55047) - http://www.bohemiancoding.com/sketch -->
    <title>instagram</title>
    <desc>Created with Sketch.</desc>
    <defs></defs>
    <g id="Landing-Page" stroke="none" stroke-width="1" fill="none" fill-rule="evenodd" fill-opacity="0.3">
        <g id="Desktop" transform="translate(-934.000000, -2423.000000)" fill="#FFFFFF" fill-rule="nonzero">
            <g id="Footer" transform="translate(0.000000, 2358.000000)">
                <g id="Social-Media-Links" transform="translate(845.000000, 30.000000)">
                    <g id="Group-5" transform="translate(0.000000, 35.000000)">
                        <g id="instagram" transform="translate(89.000000, 0.000000)">
                            <path d="M14.1666667,1.66666667 C15.2708333,1.66666667 16.3177083,2.10416667 17.109375,2.890625 C17.9010417,3.67708333 18.3333333,4.72916667 18.3333333,5.83333333 L18.3333333,14.1666667 C18.3333333,15.2708333 17.8958333,16.3177083 17.109375,17.109375 C16.3229167,17.9010417 15.2708333,18.3333333 14.1666667,18.3333333 L5.83333333,18.3333333 C4.72916667,18.3333333 3.68229167,17.8958333 2.890625,17.109375 C2.09895833,16.3229167 1.66666667,15.2708333 1.66666667,14.1666667 L1.66666667,5.83333333 C1.66666667,4.72916667 2.10416667,3.68229167 2.890625,2.890625 C3.67708333,2.09895833 4.72916667,1.66666667 5.83333333,1.66666667 L14.1666667,1.66666667 Z M14.1666667,0 L5.83333333,0 C2.625,0 0,2.625 0,5.83333333 L0,14.1666667 C0,17.375 2.625,20 5.83333333,20 L14.1666667,20 C17.375,20 20,17.375 20,14.1666667 L20,5.83333333 C20,2.625 17.375,0 14.1666667,0 Z" id="Shape"></path>
                            <path d="M15.4166667,5.83333333 C14.7239583,5.83333333 14.1666667,5.27604167 14.1666667,4.58333333 C14.1666667,3.890625 14.7239583,3.33333333 15.4166667,3.33333333 C16.1041667,3.33333333 16.6666667,3.890625 16.6666667,4.58333333 C16.6666667,5.27604167 16.1041667,5.83333333 15.4166667,5.83333333 Z M10,6.66666667 C11.8385417,6.66666667 13.3333333,8.16145833 13.3333333,10 C13.3333333,11.8385417 11.8385417,13.3333333 10,13.3333333 C8.16145833,13.3333333 6.66666667,11.8385417 6.66666667,10 C6.66666667,8.16145833 8.16145833,6.66666667 10,6.66666667 Z M10,5 C7.23958333,5 5,7.23958333 5,10 C5,12.7604167 7.23958333,15 10,15 C12.7604167,15 15,12.7604167 15,10 C15,7.23958333 12.7604167,5 10,5 Z" id="Shape"></path>
                        </g>
                    </g>
                </g>
            </g>
        </g>
    </g>
</svg>