<svg width="20" height="20" xmlns="http://www.w3.org/2000/svg"><g fill="#FFF" fill-rule="nonzero" fill-opacity=".3"><path d="M14.167 1.667a4.16 4.16 0 0 1 2.942 1.224 4.13 4.13 0 0 1 1.224 2.942v8.334a4.16 4.16 0 0 1-1.224 2.942 4.13 4.13 0 0 1-2.942 1.224H5.833a4.16 4.16 0 0 1-2.942-1.224 4.13 4.13 0 0 1-1.224-2.942V5.833A4.16 4.16 0 0 1 2.89 2.891a4.13 4.13 0 0 1 2.942-1.224h8.334zm0-1.667H5.833C2.625 0 0 2.625 0 5.833v8.334C0 17.375 2.625 20 5.833 20h8.334C17.375 20 20 17.375 20 14.167V5.833C20 2.625 17.375 0 14.167 0z"/><path d="M15.417 5.833c-.693 0-1.25-.557-1.25-1.25a1.25 1.25 0 1 1 1.25 1.25zM10 6.667A3.336 3.336 0 0 1 13.333 10 3.336 3.336 0 0 1 10 13.333 3.336 3.336 0 0 1 6.667 10 3.336 3.336 0 0 1 10 6.667zM10 5c-2.76 0-5 2.24-5 5s2.24 5 5 5 5-2.24 5-5-2.24-5-5-5z"/></g></svg>