<?xml version="1.0" encoding="UTF-8"?>
<svg width="112px" height="392px" viewBox="0 0 112 392" version="1.1" xmlns="http://www.w3.org/2000/svg" xmlns:xlink="http://www.w3.org/1999/xlink">
    <!-- Generator: Sketch 50.2 (55047) - http://www.bohemiancoding.com/sketch -->
    <title>{</title>
    <desc>Created with Sketch.</desc>
    <defs></defs>
    <g id="Landing-Page" stroke="none" stroke-width="1" fill="none" fill-rule="evenodd" fill-opacity="0.15">
        <g id="Desktop" transform="translate(-30.000000, -1906.000000)" fill="#000000">
            <g id="Authors-Section" transform="translate(0.000000, 1846.000000)">
                <path d="M142,66.7920792 C142,70.6732673 138.62069,73.5841584 135.241379,73.5841584 L101.448276,73.5841584 C86,73.5841584 74.4137931,87.1683168 74.4137931,102.207921 L74.4137931,223.49505 C74.4137931,233.683168 74.8965517,247.752475 67.6551724,256 C74.8965517,263.762376 74.4137931,278.316832 74.4137931,288.50495 L74.4137931,409.792079 C74.4137931,424.831683 86,438.415842 101.448276,438.415842 L135.241379,438.415842 C138.62069,438.415842 142,441.326733 142,445.207921 C142,448.60396 138.62069,452 135.241379,452 L101.448276,452 C78.7586207,452 60.8965517,432.594059 60.8965517,409.792079 L60.8965517,288.50495 C60.8965517,270.554455 63.7931034,262.792079 44,262.792079 C38.2068966,262.792079 30,264.732673 30,256 C30,252.60396 32.4137931,248.722772 36.2758621,248.722772 C60.4137931,248.722772 60.8965517,250.663366 60.8965517,223.49505 L60.8965517,102.207921 C60.8965517,79.4059406 78.7586207,60 101.448276,60 L135.241379,60 C138.62069,60 142,62.9108911 142,66.7920792 Z" id="{"></path>
            </g>
        </g>
    </g>
</svg>