<?xml version="1.0" encoding="UTF-8"?>
<svg width="156px" height="80px" viewBox="0 0 156 80" version="1.1" xmlns="http://www.w3.org/2000/svg" xmlns:xlink="http://www.w3.org/1999/xlink">
    <!-- Generator: Sketch 50.2 (55047) - http://www.bohemiancoding.com/sketch -->
    <title>THANK YOU! THANK YOU</title>
    <desc>Created with Sketch.</desc>
    <defs></defs>
    <g id="Landing-Page" stroke="none" stroke-width="1" fill="none" fill-rule="evenodd" opacity="0.5">
        <g id="Desktop" transform="translate(-610.000000, -1768.000000)" fill="#034752">
            <g id="Kickstarter-Section" transform="translate(0.000000, 1583.000000)">
                <g id="Thank-You-Area" transform="translate(0.000000, 185.000000)">
                    <g id="Thank-You-Pattern" transform="translate(-142.000000, -11.000000)">
                        <path d="M748.711462,45.8458795 L748.711462,48.3098795 L746.079462,48.3098795 L746.079462,55.7578795 L742.971462,55.7578795 L742.971462,48.3098795 L740.367462,48.3098795 L740.367462,45.8458795 L748.711462,45.8458795 Z M758.721462,45.8458795 L758.721462,55.7578795 L755.613462,55.7578795 L755.613462,51.8938795 L752.659462,51.8938795 L752.659462,55.7578795 L749.551462,55.7578795 L749.551462,45.8458795 L752.659462,45.8458795 L752.659462,49.4158795 L755.613462,49.4158795 L755.613462,45.8458795 L758.721462,45.8458795 Z M766.477462,54.2598795 L763.173462,54.2598795 L762.683462,55.7578795 L759.421462,55.7578795 L763.047462,45.8458795 L766.631462,45.8458795 L770.243462,55.7578795 L766.967462,55.7578795 L766.477462,54.2598795 Z M765.721462,51.9218795 L764.825462,49.1638795 L763.929462,51.9218795 L765.721462,51.9218795 Z M780.449462,55.7578795 L777.341462,55.7578795 L774.051462,50.7738795 L774.051462,55.7578795 L770.943462,55.7578795 L770.943462,45.8458795 L774.051462,45.8458795 L777.341462,50.9138795 L777.341462,45.8458795 L780.449462,45.8458795 L780.449462,55.7578795 Z M787.911462,50.6618795 L791.579462,55.7578795 L787.841462,55.7578795 L784.957462,51.4598795 L784.957462,55.7578795 L781.849462,55.7578795 L781.849462,45.8458795 L784.957462,45.8458795 L784.957462,50.0318795 L787.869462,45.8458795 L791.579462,45.8458795 L787.911462,50.6618795 Z M804.319462,45.8458795 L800.763462,52.7478795 L800.763462,55.7578795 L797.655462,55.7578795 L797.655462,52.7478795 L794.099462,45.8458795 L797.655462,45.8458795 L799.237462,49.3598795 L800.819462,45.8458795 L804.319462,45.8458795 Z M809.849462,45.6778795 C810.7828,45.6778795 811.636792,45.8948773 812.411462,46.3288795 C813.186133,46.7628817 813.799793,47.367209 814.252462,48.1418795 C814.705131,48.91655 814.931462,49.789208 814.931462,50.7598795 C814.931462,51.730551 814.705131,52.603209 814.252462,53.3778795 C813.799793,54.15255 813.183799,54.7592106 812.404462,55.1978795 C811.625125,55.6365484 810.773467,55.8558795 809.849462,55.8558795 C808.916124,55.8558795 808.059799,55.6365484 807.280462,55.1978795 C806.501125,54.7592106 805.882798,54.15255 805.425462,53.3778795 C804.968127,52.603209 804.739462,51.730551 804.739462,50.7598795 C804.739462,49.789208 804.968127,48.91655 805.425462,48.1418795 C805.882798,47.367209 806.501125,46.7628817 807.280462,46.3288795 C808.059799,45.8948773 808.916124,45.6778795 809.849462,45.6778795 Z M809.849462,48.5478795 C809.224126,48.5478795 808.743464,48.7462109 808.407462,49.1428795 C808.071461,49.5395482 807.903462,50.0785428 807.903462,50.7598795 C807.903462,51.4318829 808.071461,51.9662109 808.407462,52.3628795 C808.743464,52.7595482 809.224126,52.9578795 809.849462,52.9578795 C810.465465,52.9578795 810.941461,52.7595482 811.277462,52.3628795 C811.613464,51.9662109 811.781462,51.4318829 811.781462,50.7598795 C811.781462,50.0785428 811.613464,49.5395482 811.277462,49.1428795 C810.941461,48.7462109 810.465465,48.5478795 809.849462,48.5478795 Z M819.089462,45.8458795 L819.089462,51.4318795 C819.089462,51.8892151 819.189795,52.2508782 819.390462,52.5168795 C819.59113,52.7828808 819.91546,52.9158795 820.363462,52.9158795 C820.811464,52.9158795 821.142794,52.7828808 821.357462,52.5168795 C821.57213,52.2508782 821.679462,51.8892151 821.679462,51.4318795 L821.679462,45.8458795 L824.773462,45.8458795 L824.773462,51.4318795 C824.773462,52.3745509 824.577464,53.1795428 824.185462,53.8468795 C823.79346,54.5142162 823.256799,55.0158778 822.575462,55.3518795 C821.894125,55.6878812 821.133466,55.8558795 820.293462,55.8558795 C819.453458,55.8558795 818.709132,55.6878812 818.060462,55.3518795 C817.411792,55.0158778 816.905464,54.5165495 816.541462,53.8538795 C816.17746,53.1912095 815.995462,52.3838843 815.995462,51.4318795 L815.995462,45.8458795 L819.089462,45.8458795 Z M830.317462,45.1878795 L829.953462,51.8238795 L827.293462,51.8238795 L826.929462,45.1878795 L830.317462,45.1878795 Z M830.163462,52.7898795 L830.163462,55.7578795 L827.083462,55.7578795 L827.083462,52.7898795 L830.163462,52.7898795 Z M842.371462,45.8458795 L842.371462,48.3098795 L839.739462,48.3098795 L839.739462,55.7578795 L836.631462,55.7578795 L836.631462,48.3098795 L834.027462,48.3098795 L834.027462,45.8458795 L842.371462,45.8458795 Z M852.381462,45.8458795 L852.381462,55.7578795 L849.273462,55.7578795 L849.273462,51.8938795 L846.319462,51.8938795 L846.319462,55.7578795 L843.211462,55.7578795 L843.211462,45.8458795 L846.319462,45.8458795 L846.319462,49.4158795 L849.273462,49.4158795 L849.273462,45.8458795 L852.381462,45.8458795 Z M860.137462,54.2598795 L856.833462,54.2598795 L856.343462,55.7578795 L853.081462,55.7578795 L856.707462,45.8458795 L860.291462,45.8458795 L863.903462,55.7578795 L860.627462,55.7578795 L860.137462,54.2598795 Z M859.381462,51.9218795 L858.485462,49.1638795 L857.589462,51.9218795 L859.381462,51.9218795 Z M874.109462,55.7578795 L871.001462,55.7578795 L867.711462,50.7738795 L867.711462,55.7578795 L864.603462,55.7578795 L864.603462,45.8458795 L867.711462,45.8458795 L871.001462,50.9138795 L871.001462,45.8458795 L874.109462,45.8458795 L874.109462,55.7578795 Z M881.571462,50.6618795 L885.239462,55.7578795 L881.501462,55.7578795 L878.617462,51.4598795 L878.617462,55.7578795 L875.509462,55.7578795 L875.509462,45.8458795 L878.617462,45.8458795 L878.617462,50.0318795 L881.529462,45.8458795 L885.239462,45.8458795 L881.571462,50.6618795 Z M897.979462,45.8458795 L894.423462,52.7478795 L894.423462,55.7578795 L891.315462,55.7578795 L891.315462,52.7478795 L887.759462,45.8458795 L891.315462,45.8458795 L892.897462,49.3598795 L894.479462,45.8458795 L897.979462,45.8458795 Z M903.509462,45.6778795 C904.4428,45.6778795 905.296792,45.8948773 906.071462,46.3288795 C906.846133,46.7628817 907.459793,47.367209 907.912462,48.1418795 C908.365131,48.91655 908.591462,49.789208 908.591462,50.7598795 C908.591462,51.730551 908.365131,52.603209 907.912462,53.3778795 C907.459793,54.15255 906.843799,54.7592106 906.064462,55.1978795 C905.285125,55.6365484 904.433467,55.8558795 903.509462,55.8558795 C902.576124,55.8558795 901.719799,55.6365484 900.940462,55.1978795 C900.161125,54.7592106 899.542798,54.15255 899.085462,53.3778795 C898.628127,52.603209 898.399462,51.730551 898.399462,50.7598795 C898.399462,49.789208 898.628127,48.91655 899.085462,48.1418795 C899.542798,47.367209 900.161125,46.7628817 900.940462,46.3288795 C901.719799,45.8948773 902.576124,45.6778795 903.509462,45.6778795 Z M903.509462,48.5478795 C902.884126,48.5478795 902.403464,48.7462109 902.067462,49.1428795 C901.731461,49.5395482 901.563462,50.0785428 901.563462,50.7598795 C901.563462,51.4318829 901.731461,51.9662109 902.067462,52.3628795 C902.403464,52.7595482 902.884126,52.9578795 903.509462,52.9578795 C904.125465,52.9578795 904.601461,52.7595482 904.937462,52.3628795 C905.273464,51.9662109 905.441462,51.4318829 905.441462,50.7598795 C905.441462,50.0785428 905.273464,49.5395482 904.937462,49.1428795 C904.601461,48.7462109 904.125465,48.5478795 903.509462,48.5478795 Z M912.749462,45.8458795 L912.749462,51.4318795 C912.749462,51.8892151 912.849795,52.2508782 913.050462,52.5168795 C913.25113,52.7828808 913.57546,52.9158795 914.023462,52.9158795 C914.471464,52.9158795 914.802794,52.7828808 915.017462,52.5168795 C915.23213,52.2508782 915.339462,51.8892151 915.339462,51.4318795 L915.339462,45.8458795 L918.433462,45.8458795 L918.433462,51.4318795 C918.433462,52.3745509 918.237464,53.1795428 917.845462,53.8468795 C917.45346,54.5142162 916.916799,55.0158778 916.235462,55.3518795 C915.554125,55.6878812 914.793466,55.8558795 913.953462,55.8558795 C913.113458,55.8558795 912.369132,55.6878812 911.720462,55.3518795 C911.071792,55.0158778 910.565464,54.5165495 910.201462,53.8538795 C909.83746,53.1912095 909.655462,52.3838843 909.655462,51.4318795 L909.655462,45.8458795 L912.749462,45.8458795 Z M923.977462,45.1878795 L923.613462,51.8238795 L920.953462,51.8238795 L920.589462,45.1878795 L923.977462,45.1878795 Z M923.823462,52.7898795 L923.823462,55.7578795 L920.743462,55.7578795 L920.743462,52.7898795 L923.823462,52.7898795 Z" id="THANK-YOU!-THANK-YOU" transform="translate(832.172462, 50.521880) rotate(-30.000000) translate(-832.172462, -50.521880) "></path>
                    </g>
                </g>
            </g>
        </g>
    </g>
</svg>