<?xml version="1.0" encoding="UTF-8"?>
<svg width="20px" height="17px" viewBox="0 0 20 17" version="1.1" xmlns="http://www.w3.org/2000/svg" xmlns:xlink="http://www.w3.org/1999/xlink">
    <!-- Generator: Sketch 50.2 (55047) - http://www.bohemiancoding.com/sketch -->
    <title>twitter</title>
    <desc>Created with Sketch.</desc>
    <defs></defs>
    <g id="Landing-Page" stroke="none" stroke-width="1" fill="none" fill-rule="evenodd" fill-opacity="0.3">
        <g id="Desktop" transform="translate(-934.000000, -2460.000000)" fill="#FFFFFF" fill-rule="nonzero">
            <g id="Footer" transform="translate(0.000000, 2358.000000)">
                <g id="Social-Media-Links" transform="translate(845.000000, 30.000000)">
                    <g id="Group-5" transform="translate(25.000000, 70.000000)">
                        <path d="M84,3.92860705 C83.2625556,4.2549867 82.474253,4.47539894 81.6435686,4.57712766 C82.4912058,4.06848404 83.1438864,3.26313165 83.4490358,2.30518617 C82.656495,2.77568152 81.7791905,3.11901596 80.8425514,3.30127992 C80.0923925,2.50016622 79.0243696,2 77.8461538,2 C75.5787243,2 73.7435897,3.83959441 73.7435897,6.10729721 C73.7435897,6.42943816 73.7774952,6.74310173 73.8495444,7.0440492 C70.4378046,6.87450133 67.4117398,5.23836436 65.390125,2.75024934 C65.0383556,3.35638298 64.8349227,4.06424535 64.8349227,4.81449468 C64.8349227,6.23869681 65.5638907,7.49758976 66.665819,8.23512301 C65.9877093,8.21816822 65.3519814,8.03166556 64.8010172,7.72224069 L64.8010172,7.77310505 C64.8010172,9.76529255 66.2165713,11.422623 68.0940877,11.799867 C67.7507947,11.8931184 67.3863107,11.9439827 67.0133503,11.9439827 C66.7505828,11.9439827 66.4920534,11.9185505 66.2420004,11.8676862 C66.7632973,13.4995844 68.2805679,14.6864195 70.0775588,14.7203291 C68.6747192,15.8223903 66.9031574,16.4793883 64.979021,16.4793883 C64.6484425,16.4793883 64.3221021,16.4581948 64,16.4200465 C65.8097054,17.5984043 67.9669421,18.2765957 70.2809917,18.2765957 C77.8376775,18.2765957 81.9656707,12.0160406 81.9656707,6.58626995 C81.9656707,6.40824468 81.9614325,6.23021941 81.9529561,6.05643285 C82.7539733,5.47573138 83.4490358,4.75515293 84,3.92860705 Z" id="twitter"></path>
                    </g>
                </g>
            </g>
        </g>
    </g>
</svg>