<?xml version="1.0" encoding="UTF-8"?>
<svg width="112px" height="392px" viewBox="0 0 112 392" version="1.1" xmlns="http://www.w3.org/2000/svg" xmlns:xlink="http://www.w3.org/1999/xlink">
    <!-- Generator: Sketch 50.2 (55047) - http://www.bohemiancoding.com/sketch -->
    <title>{</title>
    <desc>Created with Sketch.</desc>
    <defs></defs>
    <g id="Landing-Page" stroke="none" stroke-width="1" fill="none" fill-rule="evenodd" fill-opacity="0.15">
        <g id="Desktop" transform="translate(-882.000000, -1906.000000)" fill="#000000">
            <g id="Authors-Section" transform="translate(0.000000, 1846.000000)">
                <path d="M994,66.7920792 C994,70.6732673 990.62069,73.5841584 987.241379,73.5841584 L953.448276,73.5841584 C938,73.5841584 926.413793,87.1683168 926.413793,102.207921 L926.413793,223.49505 C926.413793,233.683168 926.896552,247.752475 919.655172,256 C926.896552,263.762376 926.413793,278.316832 926.413793,288.50495 L926.413793,409.792079 C926.413793,424.831683 938,438.415842 953.448276,438.415842 L987.241379,438.415842 C990.62069,438.415842 994,441.326733 994,445.207921 C994,448.60396 990.62069,452 987.241379,452 L953.448276,452 C930.758621,452 912.896552,432.594059 912.896552,409.792079 L912.896552,288.50495 C912.896552,270.554455 915.793103,262.792079 896,262.792079 C890.206897,262.792079 882,264.732673 882,256 C882,252.60396 884.413793,248.722772 888.275862,248.722772 C912.413793,248.722772 912.896552,250.663366 912.896552,223.49505 L912.896552,102.207921 C912.896552,79.4059406 930.758621,60 953.448276,60 L987.241379,60 C990.62069,60 994,62.9108911 994,66.7920792 Z" id="{" transform="translate(938.000000, 256.000000) scale(-1, 1) translate(-938.000000, -256.000000) "></path>
            </g>
        </g>
    </g>
</svg>