<?xml version="1.0" encoding="UTF-8"?>
<svg width="282px" height="30px" viewBox="0 0 282 30" version="1.1" xmlns="http://www.w3.org/2000/svg" xmlns:xlink="http://www.w3.org/1999/xlink">
    <!-- Generator: Sketch 50.2 (55047) - http://www.bohemiancoding.com/sketch -->
    <title>kickstarter logo</title>
    <desc>Created with Sketch.</desc>
    <defs>
        <path d="M0,22.9329412 L0,6.56470588 C0,2.94911765 2.865825,0.0176470588 6.57148125,0.0176470588 C9.78305,0.0176470588 12.3028375,2.11852941 12.8959188,5.00147059 L14.4768813,2.85147059 C15.7617438,1.09264706 17.8367938,0.0664705882 19.9121375,0.0664705882 C23.46945,0.0664705882 26.4836188,2.85147059 26.4836188,6.46705882 C26.4836188,7.83529412 26.0882313,9.20323529 25.2481063,10.3270588 L22.0861812,14.6755882 L25.2481063,19.0241176 C26.0882313,20.1967647 26.4836188,21.5158824 26.4836188,22.8838235 C26.4836188,26.4994118 23.46945,29.5288235 19.7144438,29.48 C17.6391,29.48 15.5147,28.5026471 14.2298375,26.6461765 L12.8465688,24.6917647 C12.2041375,27.5255882 9.7337,29.48 6.57148125,29.48 C2.915175,29.48 0,26.5485294 0,22.9329412 Z M256.497506,7.82529412 C256.497506,3.01294118 259.017881,0.508823529 263.663831,0.508823529 L272.214013,0.508823529 C277.403694,0.508823529 281.456269,4.43705882 281.456269,9.495 C281.456269,12.2447059 280.319456,14.5035294 278.441513,15.9276471 L281.011531,20.0032353 C281.703313,21.0835294 282,22.2620588 282,23.4897059 C282,27.1235294 279.133294,29.9714706 275.525456,29.9714706 C273.301475,29.9714706 271.126844,28.8420588 269.891331,26.7797059 L269.199256,25.5520588 C268.359131,28.1547059 266.036156,29.9714706 263.07075,29.9714706 C259.462913,29.9714706 256.497506,26.9270588 256.497506,23.2441176 L256.497506,7.82529412 Z M254.53555,24.3261765 C254.53555,27.495 252.001663,30.0202941 248.931388,29.9708824 L238.697725,29.9708824 C234.019169,29.9708824 231.485281,27.495 231.485281,22.6423529 L231.485281,7.83705882 C231.485281,3.03411765 234.019169,0.508823529 238.697725,0.508823529 L248.931388,0.508823529 C252.001663,0.508823529 254.53555,3.03411765 254.53555,6.20294118 C254.53555,9.075 252.781275,11.1547059 250.247094,11.65 C251.416806,12.3926471 252.050425,13.6305882 252.050425,15.2644118 C252.050425,16.8985294 251.368044,18.1364706 250.247094,18.8791176 C252.732513,19.3744118 254.53555,21.5035294 254.53555,24.3261765 Z M223.540225,23.3423529 C223.540225,26.9761765 220.499619,29.9714706 216.428831,29.9714706 C212.603619,29.9714706 209.513663,26.9761765 209.513663,23.3423529 L209.513663,13.1776471 C206.227775,12.9814706 203.530563,10.2805882 203.530563,6.84323529 C203.530563,3.25852941 206.374944,0.508823529 209.857056,0.508823529 L223.196831,0.508823529 C226.678944,0.508823529 229.523619,3.30764706 229.523619,6.84323529 C229.523619,10.2805882 226.826112,13.0302941 223.540225,13.1776471 L223.540225,23.3423529 Z M177.537506,7.82529412 C177.537506,3.01294118 180.107525,0.508823529 184.703831,0.508823529 L193.254012,0.508823529 C198.443694,0.508823529 202.496269,4.43705882 202.496269,9.495 C202.496269,12.2447059 201.35975,14.5035294 199.481512,15.9276471 L202.051531,20.0032353 C202.743606,21.0835294 203.04,22.2620588 203.04,23.4897059 C203.04,27.1235294 200.173294,29.9714706 196.565456,29.9714706 C194.341475,29.9714706 192.166844,28.8420588 190.931331,26.7797059 L190.239256,25.5520588 C189.399131,28.1547059 187.076156,29.9714706 184.11075,29.9714706 C180.502913,29.9714706 177.537506,26.9270588 177.537506,23.2441176 L177.537506,7.82529412 Z M161.313694,24.3588235 C159.640494,27.8220588 157.27845,29.4805882 154.424081,29.4805882 C149.256725,29.4805882 145.5167,24.7488235 147.829687,19.4320588 L153.8827,5.38352941 C155.408144,1.92 157.622725,0.0176470588 161.36275,0.0176470588 C165.152125,0.0176470588 167.366706,1.92 168.843094,5.38352941 L174.896106,19.4320588 C177.159744,24.7488235 173.468775,29.4805882 168.252363,29.4805882 C165.348938,29.4805882 162.986894,27.8220588 161.313694,24.3588235 Z M144.0785,23.3423529 C144.0785,26.9761765 140.982963,29.9714706 137.002944,29.9714706 C133.170094,29.9714706 130.074556,26.9761765 130.074556,23.3423529 L130.074556,13.1776471 C126.7825,12.9814706 124.08,10.2805882 124.08,6.84323529 C124.08,3.25852941 126.929963,0.508823529 130.418537,0.508823529 L143.734519,0.508823529 C147.223094,0.508823529 150.073056,3.30764706 150.073056,6.84323529 C150.073056,10.2805882 147.370556,13.0302941 144.0785,13.1776471 L144.0785,23.3423529 Z M124.08,20.4138235 C124.08,26.2767647 119.5586,29.9714706 111.941075,29.9714706 C104.175794,29.9714706 100.539169,27.3111765 100.539169,22.9758824 C100.539169,19.9705882 102.848925,18.0491176 106.141862,18.0491176 L106.190919,18.0491176 L104.421662,16.4232353 C102.210019,14.4035294 100.686631,12.3835294 100.686631,9.42764706 C100.686631,3.66323529 104.913106,0.0176470588 112.137594,0.0176470588 C119.509544,0.0176470588 122.998706,2.62882353 122.998706,7.01352941 C122.998706,9.62470588 121.22945,11.3982353 118.575712,11.7923529 L120.394025,13.4182353 C122.605669,15.3888235 124.08,17.4579412 124.08,20.4138235 Z M99.067775,22.8838235 C99.067775,26.4994118 96.0483187,29.5288235 92.3356125,29.48 C90.25645,29.48 88.1279375,28.5026471 86.8410188,26.6461765 L85.4548125,24.6917647 C84.8112062,27.5255882 82.3363625,29.48 79.167975,29.48 C75.5049125,29.48 72.58445,26.5485294 72.58445,22.9329412 L72.58445,6.56470588 C72.58445,2.94911765 75.4555625,0.0176470588 79.167975,0.0176470588 C82.3857125,0.0176470588 84.9102,2.11852941 85.5044563,5.00147059 L87.0390062,2.85147059 C88.325925,1.09264706 90.4050875,0.0664705882 92.4839562,0.0664705882 C96.0483187,0.0664705882 99.067775,2.85147059 99.067775,6.46705882 C99.067775,7.83529412 98.6718,9.20323529 97.8302062,10.3270588 L94.6621125,14.6755882 L97.8302062,19.0241176 C98.6718,20.1967647 99.067775,21.5158824 99.067775,22.8838235 Z M70.132225,21.3832353 C70.132225,26.1147059 66.1827562,29.4805882 59.8445125,29.4805882 C51.3607187,29.4805882 45.12,23.1879412 45.12,14.7491176 C45.12,6.31029412 51.3607187,0.0176470588 59.8445125,0.0176470588 C66.1827562,0.0176470588 70.132225,3.38352941 70.132225,8.115 C70.132225,11.2858824 68.571825,13.4320588 65.4516125,14.7491176 C68.571825,16.0661765 70.132225,18.2611765 70.132225,21.3832353 Z M35.5810563,0.0176470588 C39.5452125,0.0176470588 42.7168313,3.24794118 42.6671875,7.06529412 L42.6671875,22.4329412 C42.6671875,26.2502941 39.5452125,29.4805882 35.5314125,29.4805882 C31.6166063,29.4805882 28.4452813,26.2994118 28.4452813,22.4329412 L28.4452813,7.06529412 C28.4452813,3.24794118 31.6166063,0.0176470588 35.5810563,0.0176470588 Z" id="path-1"></path>
    </defs>
    <g id="Landing-Page" stroke="none" stroke-width="1" fill="none" fill-rule="evenodd" opacity="0.9">
        <g id="Desktop" transform="translate(-60.000000, -1678.000000)">
            <g id="Kickstarter-Section" transform="translate(0.000000, 1583.000000)">
                <g id="Kickstarter-Area">
                    <g id="kickstarter-logo" transform="translate(60.000000, 95.000000)">
                        <mask id="mask-2" fill="white">
                            <use xlink:href="#path-1"></use>
                        </mask>
                        <g id="Clip-2"></g>
                        <polygon id="Fill-1" fill="#FFFFFF" mask="url(#mask-2)" points="0 30 282 30 282 0 0 0"></polygon>
                    </g>
                </g>
            </g>
        </g>
    </g>
</svg>